<?xml version="1.0" encoding="UTF-8"?>
<svg id="Layer_1" data-name="Layer 1" xmlns="http://www.w3.org/2000/svg" viewBox="0 0 500 500">
  <defs>
    <style>
      .cls-1 {
        font-family: MyriadPro-Regular, 'Myriad Pro';
        font-size: 229.14px;
      }

      .cls-2 {
        stroke-width: 6px;
      }

      .cls-2, .cls-3 {
        stroke: #000;
        stroke-miterlimit: 10;
      }

      .cls-3 {
        stroke-width: 16px;
      }
    </style>
  </defs>
  <path d="M250.5,32c29.64,0,58.38,5.8,85.43,17.24,26.14,11.05,49.61,26.88,69.78,47.05,20.16,20.16,35.99,43.64,47.05,69.78,11.44,27.05,17.24,55.79,17.24,85.43s-5.8,58.38-17.24,85.43c-11.05,26.14-26.88,49.61-47.05,69.78s-43.64,35.99-69.78,47.05c-27.05,11.44-55.8,17.24-85.43,17.24s-58.38-5.8-85.43-17.24c-26.14-11.05-49.61-26.88-69.78-47.05-20.16-20.16-35.99-43.64-47.05-69.78-11.44-27.05-17.24-55.8-17.24-85.43s5.8-58.38,17.24-85.43c11.05-26.14,26.88-49.61,47.05-69.78,20.16-20.16,43.64-35.99,69.78-47.05,27.05-11.44,55.79-17.24,85.43-17.24M250.5,16C120.44,16,15,121.44,15,251.5s105.44,235.5,235.5,235.5,235.5-105.44,235.5-235.5S380.56,16,250.5,16h0Z"/>
  <text class="cls-1" transform="translate(65.85 319.73)"><tspan x="0" y="0" xml:space="preserve">[     ]</tspan></text>
  <line class="cls-3" x1="129.75" y1="252.77" x2="363.98" y2="252.77"/>
  <polygon class="cls-2" points="324.57 225.94 372.63 252.77 323.78 280.98 324.57 225.94"/>
</svg>
